<mxfile host="app.diagrams.net" agent="Mozilla/5.0 (Macintosh; Intel Mac OS X 10_15_7) AppleWebKit/537.36 (KHTML, like Gecko) Chrome/133.0.0.0 Safari/537.36 Edg/133.0.0.0" version="26.1.0">
  <diagram name="Page-1" id="8PJF-7k6O8kf38LD9RbU">
    <mxGraphModel dx="1540" dy="794" grid="1" gridSize="10" guides="1" tooltips="1" connect="1" arrows="1" fold="1" page="1" pageScale="1" pageWidth="1600" pageHeight="900" math="0" shadow="0">
      <root>
        <mxCell id="0" />
        <mxCell id="1" parent="0" />
        <mxCell id="Pmdtr9oIzFHYsxCgHXhq-8" value="LXC" style="rounded=0;whiteSpace=wrap;html=1;align=left;verticalAlign=top;" vertex="1" parent="1">
          <mxGeometry x="565" y="168.75" width="155" height="448.25" as="geometry" />
        </mxCell>
        <mxCell id="H-8ICV9-0rw6bkesGoe8-49" style="edgeStyle=orthogonalEdgeStyle;rounded=0;orthogonalLoop=1;jettySize=auto;html=1;endArrow=none;endFill=0;" parent="1" source="H-8ICV9-0rw6bkesGoe8-4" edge="1">
          <mxGeometry relative="1" as="geometry">
            <Array as="points">
              <mxPoint x="1400" y="540" />
              <mxPoint x="1270" y="540" />
            </Array>
            <mxPoint x="1270" y="610" as="targetPoint" />
          </mxGeometry>
        </mxCell>
        <mxCell id="H-8ICV9-0rw6bkesGoe8-50" style="edgeStyle=orthogonalEdgeStyle;rounded=0;orthogonalLoop=1;jettySize=auto;html=1;endArrow=none;endFill=0;" parent="1" source="H-8ICV9-0rw6bkesGoe8-4" edge="1">
          <mxGeometry relative="1" as="geometry">
            <mxPoint x="1400" y="610" as="targetPoint" />
          </mxGeometry>
        </mxCell>
        <mxCell id="H-8ICV9-0rw6bkesGoe8-51" style="edgeStyle=orthogonalEdgeStyle;rounded=0;orthogonalLoop=1;jettySize=auto;html=1;endArrow=none;endFill=0;" parent="1" source="H-8ICV9-0rw6bkesGoe8-4" edge="1">
          <mxGeometry relative="1" as="geometry">
            <Array as="points">
              <mxPoint x="1400" y="540" />
              <mxPoint x="1530" y="540" />
            </Array>
            <mxPoint x="1530" y="610" as="targetPoint" />
          </mxGeometry>
        </mxCell>
        <mxCell id="H-8ICV9-0rw6bkesGoe8-4" value="Wireless AP" style="rounded=0;whiteSpace=wrap;html=1;" parent="1" vertex="1">
          <mxGeometry x="1340" y="410" width="120" height="60" as="geometry" />
        </mxCell>
        <mxCell id="H-8ICV9-0rw6bkesGoe8-13" style="rounded=0;orthogonalLoop=1;jettySize=auto;html=1;edgeStyle=orthogonalEdgeStyle;endArrow=none;endFill=0;" parent="1" target="H-8ICV9-0rw6bkesGoe8-4" edge="1">
          <mxGeometry relative="1" as="geometry">
            <mxPoint x="1120" y="440" as="sourcePoint" />
          </mxGeometry>
        </mxCell>
        <mxCell id="H-8ICV9-0rw6bkesGoe8-20" value="Docker-dev1&lt;div&gt;&lt;div&gt;CT110&lt;/div&gt;&lt;/div&gt;" style="rounded=0;whiteSpace=wrap;html=1;" parent="1" vertex="1">
          <mxGeometry x="584" y="374.5" width="120" height="60" as="geometry" />
        </mxCell>
        <mxCell id="F_XST8kIAoM1eg2vmdfE-63" style="edgeStyle=orthogonalEdgeStyle;rounded=0;orthogonalLoop=1;jettySize=auto;html=1;endArrow=none;startFill=0;" parent="1" source="H-8ICV9-0rw6bkesGoe8-21" target="F_XST8kIAoM1eg2vmdfE-44" edge="1">
          <mxGeometry relative="1" as="geometry" />
        </mxCell>
        <mxCell id="F_XST8kIAoM1eg2vmdfE-64" style="edgeStyle=orthogonalEdgeStyle;rounded=0;orthogonalLoop=1;jettySize=auto;html=1;endArrow=none;startFill=0;" parent="1" source="H-8ICV9-0rw6bkesGoe8-21" target="F_XST8kIAoM1eg2vmdfE-48" edge="1">
          <mxGeometry relative="1" as="geometry" />
        </mxCell>
        <mxCell id="Pmdtr9oIzFHYsxCgHXhq-9" style="edgeStyle=orthogonalEdgeStyle;rounded=0;orthogonalLoop=1;jettySize=auto;html=1;entryX=0.5;entryY=1;entryDx=0;entryDy=0;" edge="1" parent="1" source="H-8ICV9-0rw6bkesGoe8-21" target="F_XST8kIAoM1eg2vmdfE-55">
          <mxGeometry relative="1" as="geometry" />
        </mxCell>
        <mxCell id="H-8ICV9-0rw6bkesGoe8-21" value="Docker-prod&lt;div&gt;&lt;div&gt;CT101&lt;/div&gt;&lt;/div&gt;" style="rounded=0;whiteSpace=wrap;html=1;" parent="1" vertex="1">
          <mxGeometry x="584" y="288.5" width="120" height="60" as="geometry" />
        </mxCell>
        <mxCell id="H-8ICV9-0rw6bkesGoe8-66" style="edgeStyle=orthogonalEdgeStyle;rounded=0;orthogonalLoop=1;jettySize=auto;html=1;exitX=0.5;exitY=1;exitDx=0;exitDy=0;entryX=0.5;entryY=0;entryDx=0;entryDy=0;" parent="1" source="H-8ICV9-0rw6bkesGoe8-22" target="H-8ICV9-0rw6bkesGoe8-65" edge="1">
          <mxGeometry relative="1" as="geometry" />
        </mxCell>
        <mxCell id="H-8ICV9-0rw6bkesGoe8-22" value="HAOS&lt;div&gt;VM102&lt;/div&gt;" style="rounded=0;whiteSpace=wrap;html=1;" parent="1" vertex="1">
          <mxGeometry x="584" y="636.5" width="120" height="60" as="geometry" />
        </mxCell>
        <mxCell id="H-8ICV9-0rw6bkesGoe8-23" value="Bookstack&lt;div&gt;&lt;div&gt;CT104&lt;/div&gt;&lt;/div&gt;" style="rounded=0;whiteSpace=wrap;html=1;" parent="1" vertex="1">
          <mxGeometry x="584" y="459.5" width="120" height="60" as="geometry" />
        </mxCell>
        <mxCell id="H-8ICV9-0rw6bkesGoe8-26" value="Pi-Hole&lt;div&gt;(Debian12)&lt;br&gt;&lt;div&gt;CT100&lt;/div&gt;&lt;/div&gt;" style="rounded=0;whiteSpace=wrap;html=1;" parent="1" vertex="1">
          <mxGeometry x="584" y="202.5" width="120" height="60" as="geometry" />
        </mxCell>
        <mxCell id="H-8ICV9-0rw6bkesGoe8-28" value="nginx proxy&lt;br&gt;&amp;nbsp;manager&lt;div&gt;(Debian12)&lt;br&gt;&lt;div&gt;CT103&lt;/div&gt;&lt;/div&gt;" style="rounded=0;whiteSpace=wrap;html=1;" parent="1" vertex="1">
          <mxGeometry x="584" y="540.5" width="120" height="60" as="geometry" />
        </mxCell>
        <mxCell id="H-8ICV9-0rw6bkesGoe8-65" value="APC UPS" style="rounded=0;whiteSpace=wrap;html=1;" parent="1" vertex="1">
          <mxGeometry x="850" y="740" width="120" height="60" as="geometry" />
        </mxCell>
        <mxCell id="H-8ICV9-0rw6bkesGoe8-67" value="Cloudflare" style="rounded=0;whiteSpace=wrap;html=1;" parent="1" vertex="1">
          <mxGeometry x="690" y="30" width="120" height="60" as="geometry" />
        </mxCell>
        <mxCell id="H-8ICV9-0rw6bkesGoe8-68" value="Tailscale" style="rounded=0;whiteSpace=wrap;html=1;" parent="1" vertex="1">
          <mxGeometry x="550" y="30" width="120" height="60" as="geometry" />
        </mxCell>
        <mxCell id="H-8ICV9-0rw6bkesGoe8-69" value="domain.xyz" style="rounded=0;whiteSpace=wrap;html=1;" parent="1" vertex="1">
          <mxGeometry x="820" y="30" width="120" height="60" as="geometry" />
        </mxCell>
        <mxCell id="H-8ICV9-0rw6bkesGoe8-70" value="Tuya" style="rounded=0;whiteSpace=wrap;html=1;" parent="1" vertex="1">
          <mxGeometry x="710" y="740" width="120" height="60" as="geometry" />
        </mxCell>
        <mxCell id="H-8ICV9-0rw6bkesGoe8-71" value="Homekit Controller" style="rounded=0;whiteSpace=wrap;html=1;" parent="1" vertex="1">
          <mxGeometry x="580" y="740" width="120" height="60" as="geometry" />
        </mxCell>
        <mxCell id="H-8ICV9-0rw6bkesGoe8-72" value="environment canada" style="rounded=0;whiteSpace=wrap;html=1;" parent="1" vertex="1">
          <mxGeometry x="580" y="820" width="120" height="60" as="geometry" />
        </mxCell>
        <mxCell id="UK7bh5dRqCB79iwSgrZ0-4" style="edgeStyle=orthogonalEdgeStyle;rounded=0;orthogonalLoop=1;jettySize=auto;html=1;endArrow=none;startFill=0;" parent="1" source="UK7bh5dRqCB79iwSgrZ0-1" target="UK7bh5dRqCB79iwSgrZ0-3" edge="1">
          <mxGeometry relative="1" as="geometry" />
        </mxCell>
        <mxCell id="UK7bh5dRqCB79iwSgrZ0-1" value="" style="image;aspect=fixed;perimeter=ellipsePerimeter;html=1;align=center;shadow=0;dashed=0;spacingTop=3;image=img/lib/active_directory/internet_cloud.svg;" parent="1" vertex="1">
          <mxGeometry x="1035" y="108.5" width="50" height="31.5" as="geometry" />
        </mxCell>
        <mxCell id="UK7bh5dRqCB79iwSgrZ0-7" style="edgeStyle=orthogonalEdgeStyle;rounded=0;orthogonalLoop=1;jettySize=auto;html=1;endArrow=none;startFill=0;" parent="1" source="UK7bh5dRqCB79iwSgrZ0-3" target="UK7bh5dRqCB79iwSgrZ0-6" edge="1">
          <mxGeometry relative="1" as="geometry" />
        </mxCell>
        <mxCell id="UK7bh5dRqCB79iwSgrZ0-3" value="Firewall" style="image;html=1;image=img/lib/clip_art/networking/Firewall_02_128x128.png" parent="1" vertex="1">
          <mxGeometry x="1030" y="180" width="60" height="60" as="geometry" />
        </mxCell>
        <mxCell id="UK7bh5dRqCB79iwSgrZ0-10" style="edgeStyle=orthogonalEdgeStyle;rounded=0;orthogonalLoop=1;jettySize=auto;html=1;endArrow=none;startFill=0;" parent="1" source="UK7bh5dRqCB79iwSgrZ0-6" target="UK7bh5dRqCB79iwSgrZ0-9" edge="1">
          <mxGeometry relative="1" as="geometry" />
        </mxCell>
        <mxCell id="UK7bh5dRqCB79iwSgrZ0-6" value="Router" style="image;points=[];aspect=fixed;html=1;align=center;shadow=0;dashed=0;image=img/lib/allied_telesis/security/Router_VPN.svg;" parent="1" vertex="1">
          <mxGeometry x="1024.78" y="309" width="70.45" height="50" as="geometry" />
        </mxCell>
        <mxCell id="yec54TBUQDnnElS_8UVJ-3" style="edgeStyle=orthogonalEdgeStyle;rounded=0;orthogonalLoop=1;jettySize=auto;html=1;endArrow=none;startFill=0;" parent="1" source="UK7bh5dRqCB79iwSgrZ0-9" target="UK7bh5dRqCB79iwSgrZ0-18" edge="1">
          <mxGeometry relative="1" as="geometry" />
        </mxCell>
        <mxCell id="yec54TBUQDnnElS_8UVJ-5" style="edgeStyle=orthogonalEdgeStyle;rounded=0;orthogonalLoop=1;jettySize=auto;html=1;endArrow=none;startFill=0;" parent="1" source="UK7bh5dRqCB79iwSgrZ0-9" target="yec54TBUQDnnElS_8UVJ-4" edge="1">
          <mxGeometry relative="1" as="geometry" />
        </mxCell>
        <mxCell id="Pmdtr9oIzFHYsxCgHXhq-12" style="edgeStyle=orthogonalEdgeStyle;rounded=0;orthogonalLoop=1;jettySize=auto;html=1;endArrow=none;startFill=0;" edge="1" parent="1" source="UK7bh5dRqCB79iwSgrZ0-9" target="Pmdtr9oIzFHYsxCgHXhq-4">
          <mxGeometry relative="1" as="geometry" />
        </mxCell>
        <mxCell id="UK7bh5dRqCB79iwSgrZ0-9" value="Switch" style="image;html=1;image=img/lib/clip_art/networking/Switch_128x128.png" parent="1" vertex="1">
          <mxGeometry x="1020" y="410" width="80" height="47.5" as="geometry" />
        </mxCell>
        <mxCell id="UK7bh5dRqCB79iwSgrZ0-18" value="PC1" style="image;points=[];aspect=fixed;html=1;align=center;shadow=0;dashed=0;image=img/lib/allied_telesis/computer_and_terminals/Personal_Computer_with_Server.svg;" parent="1" vertex="1">
          <mxGeometry x="1000" y="568.5" width="50" height="50" as="geometry" />
        </mxCell>
        <mxCell id="Pmdtr9oIzFHYsxCgHXhq-14" style="edgeStyle=orthogonalEdgeStyle;rounded=0;orthogonalLoop=1;jettySize=auto;html=1;endArrow=none;startFill=0;" edge="1" parent="1" source="UK7bh5dRqCB79iwSgrZ0-19" target="Pmdtr9oIzFHYsxCgHXhq-4">
          <mxGeometry relative="1" as="geometry" />
        </mxCell>
        <mxCell id="UK7bh5dRqCB79iwSgrZ0-19" value="Unraid&lt;div&gt;(storage server)&lt;/div&gt;" style="image;points=[];aspect=fixed;html=1;align=center;shadow=0;dashed=0;image=img/lib/allied_telesis/computer_and_terminals/Server_Desktop.svg;" parent="1" vertex="1">
          <mxGeometry x="807.4" y="305" width="42.599999999999994" height="54" as="geometry" />
        </mxCell>
        <mxCell id="UK7bh5dRqCB79iwSgrZ0-34" value="Brother Laser" style="sketch=0;pointerEvents=1;shadow=0;dashed=0;html=1;strokeColor=none;fillColor=#505050;labelPosition=center;verticalLabelPosition=bottom;verticalAlign=top;outlineConnect=0;align=center;shape=mxgraph.office.devices.printer;" parent="1" vertex="1">
          <mxGeometry x="1360" y="616.5" width="56" height="47" as="geometry" />
        </mxCell>
        <mxCell id="yec54TBUQDnnElS_8UVJ-2" value="" style="image;sketch=0;aspect=fixed;html=1;points=[];align=center;fontSize=12;image=img/lib/mscae/Docker.svg;" parent="1" vertex="1">
          <mxGeometry x="675.61" y="325" width="24.39" height="20" as="geometry" />
        </mxCell>
        <mxCell id="yec54TBUQDnnElS_8UVJ-4" value="PC1" style="image;points=[];aspect=fixed;html=1;align=center;shadow=0;dashed=0;image=img/lib/allied_telesis/computer_and_terminals/Personal_Computer_with_Server.svg;" parent="1" vertex="1">
          <mxGeometry x="1070" y="568.5" width="50" height="50" as="geometry" />
        </mxCell>
        <mxCell id="F_XST8kIAoM1eg2vmdfE-30" value="" style="group" parent="1" vertex="1" connectable="0">
          <mxGeometry x="210" y="64.5" width="150" height="229.25" as="geometry" />
        </mxCell>
        <mxCell id="F_XST8kIAoM1eg2vmdfE-31" value="Media Services" style="rounded=0;whiteSpace=wrap;html=1;align=left;verticalAlign=top;" parent="F_XST8kIAoM1eg2vmdfE-30" vertex="1">
          <mxGeometry width="150" height="229.25" as="geometry" />
        </mxCell>
        <mxCell id="F_XST8kIAoM1eg2vmdfE-32" value="Radarr" style="rounded=0;whiteSpace=wrap;html=1;" parent="F_XST8kIAoM1eg2vmdfE-30" vertex="1">
          <mxGeometry x="15" y="72.25" width="120" height="30" as="geometry" />
        </mxCell>
        <mxCell id="F_XST8kIAoM1eg2vmdfE-33" value="Sonarr" style="rounded=0;whiteSpace=wrap;html=1;" parent="F_XST8kIAoM1eg2vmdfE-30" vertex="1">
          <mxGeometry x="15" y="33.25" width="120" height="30" as="geometry" />
        </mxCell>
        <mxCell id="F_XST8kIAoM1eg2vmdfE-34" value="Sabnzbd" style="rounded=0;whiteSpace=wrap;html=1;" parent="F_XST8kIAoM1eg2vmdfE-30" vertex="1">
          <mxGeometry x="15" y="149.25" width="120" height="30" as="geometry" />
        </mxCell>
        <mxCell id="F_XST8kIAoM1eg2vmdfE-35" value="Emby" style="rounded=0;whiteSpace=wrap;html=1;" parent="F_XST8kIAoM1eg2vmdfE-30" vertex="1">
          <mxGeometry x="15" y="188.25" width="120" height="30" as="geometry" />
        </mxCell>
        <mxCell id="F_XST8kIAoM1eg2vmdfE-36" value="bazarr" style="rounded=0;whiteSpace=wrap;html=1;" parent="F_XST8kIAoM1eg2vmdfE-30" vertex="1">
          <mxGeometry x="15" y="109.25" width="120" height="30" as="geometry" />
        </mxCell>
        <mxCell id="F_XST8kIAoM1eg2vmdfE-37" value="" style="group" parent="1" vertex="1" connectable="0">
          <mxGeometry x="40" y="79" width="150" height="189.25" as="geometry" />
        </mxCell>
        <mxCell id="F_XST8kIAoM1eg2vmdfE-38" value="Infrastructure/Network" style="rounded=0;whiteSpace=wrap;html=1;align=left;verticalAlign=top;" parent="F_XST8kIAoM1eg2vmdfE-37" vertex="1">
          <mxGeometry width="150" height="189.25" as="geometry" />
        </mxCell>
        <mxCell id="F_XST8kIAoM1eg2vmdfE-39" value="glances" style="rounded=0;whiteSpace=wrap;html=1;" parent="F_XST8kIAoM1eg2vmdfE-37" vertex="1">
          <mxGeometry x="15" y="73.25" width="120" height="30" as="geometry" />
        </mxCell>
        <mxCell id="F_XST8kIAoM1eg2vmdfE-40" value="portainer" style="rounded=0;whiteSpace=wrap;html=1;" parent="F_XST8kIAoM1eg2vmdfE-37" vertex="1">
          <mxGeometry x="15" y="33.25" width="120" height="30" as="geometry" />
        </mxCell>
        <mxCell id="F_XST8kIAoM1eg2vmdfE-41" value="unifi-stack" style="rounded=0;whiteSpace=wrap;html=1;" parent="F_XST8kIAoM1eg2vmdfE-37" vertex="1">
          <mxGeometry x="15" y="149.25" width="120" height="30" as="geometry" />
        </mxCell>
        <mxCell id="F_XST8kIAoM1eg2vmdfE-42" value="nginx" style="rounded=0;whiteSpace=wrap;html=1;" parent="F_XST8kIAoM1eg2vmdfE-37" vertex="1">
          <mxGeometry x="15" y="111.25" width="120" height="30" as="geometry" />
        </mxCell>
        <mxCell id="F_XST8kIAoM1eg2vmdfE-43" value="" style="group" parent="1" vertex="1" connectable="0">
          <mxGeometry x="40" y="410" width="150" height="120" as="geometry" />
        </mxCell>
        <mxCell id="F_XST8kIAoM1eg2vmdfE-44" value="Connectivity/Tunnel" style="rounded=0;whiteSpace=wrap;html=1;align=left;verticalAlign=top;" parent="F_XST8kIAoM1eg2vmdfE-43" vertex="1">
          <mxGeometry width="150" height="120" as="geometry" />
        </mxCell>
        <mxCell id="F_XST8kIAoM1eg2vmdfE-45" value="tailscale" style="rounded=0;whiteSpace=wrap;html=1;" parent="F_XST8kIAoM1eg2vmdfE-43" vertex="1">
          <mxGeometry x="15" y="36" width="120" height="30" as="geometry" />
        </mxCell>
        <mxCell id="F_XST8kIAoM1eg2vmdfE-46" value="cloudflared" style="rounded=0;whiteSpace=wrap;html=1;" parent="F_XST8kIAoM1eg2vmdfE-43" vertex="1">
          <mxGeometry x="15" y="74" width="120" height="30" as="geometry" />
        </mxCell>
        <mxCell id="F_XST8kIAoM1eg2vmdfE-47" value="" style="group" parent="1" vertex="1" connectable="0">
          <mxGeometry x="210" y="410" width="150" height="239.25" as="geometry" />
        </mxCell>
        <mxCell id="F_XST8kIAoM1eg2vmdfE-48" value="Utilities/Automation" style="rounded=0;whiteSpace=wrap;html=1;align=left;verticalAlign=top;" parent="F_XST8kIAoM1eg2vmdfE-47" vertex="1">
          <mxGeometry width="150" height="239.25" as="geometry" />
        </mxCell>
        <mxCell id="F_XST8kIAoM1eg2vmdfE-49" value="changedetection.io" style="rounded=0;whiteSpace=wrap;html=1;" parent="F_XST8kIAoM1eg2vmdfE-47" vertex="1">
          <mxGeometry x="15" y="153.75" width="120" height="30" as="geometry" />
        </mxCell>
        <mxCell id="F_XST8kIAoM1eg2vmdfE-50" value="browserless" style="rounded=0;whiteSpace=wrap;html=1;" parent="F_XST8kIAoM1eg2vmdfE-47" vertex="1">
          <mxGeometry x="15" y="73.75" width="120" height="30" as="geometry" />
        </mxCell>
        <mxCell id="F_XST8kIAoM1eg2vmdfE-51" value="homebridge" style="rounded=0;whiteSpace=wrap;html=1;" parent="F_XST8kIAoM1eg2vmdfE-47" vertex="1">
          <mxGeometry x="15" y="193.75" width="120" height="30" as="geometry" />
        </mxCell>
        <mxCell id="F_XST8kIAoM1eg2vmdfE-52" value="speedtest-tracker" style="rounded=0;whiteSpace=wrap;html=1;" parent="F_XST8kIAoM1eg2vmdfE-47" vertex="1">
          <mxGeometry x="15" y="113.75" width="120" height="30" as="geometry" />
        </mxCell>
        <mxCell id="F_XST8kIAoM1eg2vmdfE-53" value="apprise-api" style="rounded=0;whiteSpace=wrap;html=1;" parent="F_XST8kIAoM1eg2vmdfE-47" vertex="1">
          <mxGeometry x="15" y="33.75" width="120" height="30" as="geometry" />
        </mxCell>
        <mxCell id="F_XST8kIAoM1eg2vmdfE-54" value="" style="group" parent="1" vertex="1" connectable="0">
          <mxGeometry x="380" y="126.25" width="150" height="167.5" as="geometry" />
        </mxCell>
        <mxCell id="F_XST8kIAoM1eg2vmdfE-55" value="File Services" style="rounded=0;whiteSpace=wrap;html=1;align=left;verticalAlign=top;" parent="F_XST8kIAoM1eg2vmdfE-54" vertex="1">
          <mxGeometry width="150" height="167.5" as="geometry" />
        </mxCell>
        <mxCell id="F_XST8kIAoM1eg2vmdfE-56" value="syncthing" style="rounded=0;whiteSpace=wrap;html=1;" parent="F_XST8kIAoM1eg2vmdfE-54" vertex="1">
          <mxGeometry x="15" y="78.5" width="120" height="30" as="geometry" />
        </mxCell>
        <mxCell id="F_XST8kIAoM1eg2vmdfE-57" value="paperless-ngx" style="rounded=0;whiteSpace=wrap;html=1;" parent="F_XST8kIAoM1eg2vmdfE-54" vertex="1">
          <mxGeometry x="15" y="37.5" width="120" height="30" as="geometry" />
        </mxCell>
        <mxCell id="F_XST8kIAoM1eg2vmdfE-58" value="Filebrowser" style="rounded=0;whiteSpace=wrap;html=1;" parent="F_XST8kIAoM1eg2vmdfE-54" vertex="1">
          <mxGeometry x="15" y="119" width="120" height="30" as="geometry" />
        </mxCell>
        <mxCell id="F_XST8kIAoM1eg2vmdfE-62" style="edgeStyle=orthogonalEdgeStyle;rounded=0;orthogonalLoop=1;jettySize=auto;html=1;entryX=0.5;entryY=1;entryDx=0;entryDy=0;endArrow=none;startFill=0;" parent="1" source="H-8ICV9-0rw6bkesGoe8-21" target="F_XST8kIAoM1eg2vmdfE-38" edge="1">
          <mxGeometry relative="1" as="geometry" />
        </mxCell>
        <mxCell id="F_XST8kIAoM1eg2vmdfE-65" value="" style="image;sketch=0;aspect=fixed;html=1;points=[];align=center;fontSize=12;image=img/lib/mscae/Docker.svg;" parent="1" vertex="1">
          <mxGeometry x="674" y="410" width="24.39" height="20" as="geometry" />
        </mxCell>
        <mxCell id="F_XST8kIAoM1eg2vmdfE-66" value="" style="shape=image;html=1;verticalAlign=top;verticalLabelPosition=bottom;labelBackgroundColor=#ffffff;imageAspect=0;aspect=fixed;image=https://cdn1.iconfinder.com/data/icons/operating-system-flat-1/30/ubuntu-128.png" parent="1" vertex="1">
          <mxGeometry x="680" y="496.63" width="20" height="20" as="geometry" />
        </mxCell>
        <mxCell id="F_XST8kIAoM1eg2vmdfE-68" value="" style="shape=image;html=1;verticalAlign=top;verticalLabelPosition=bottom;labelBackgroundColor=#ffffff;imageAspect=0;aspect=fixed;image=https://cdn1.iconfinder.com/data/icons/Vista-Inspirate_1.0/128x128/apps/debian.png" parent="1" vertex="1">
          <mxGeometry x="584" y="579.5" width="20" height="20" as="geometry" />
        </mxCell>
        <mxCell id="F_XST8kIAoM1eg2vmdfE-69" value="" style="shape=image;html=1;verticalAlign=top;verticalLabelPosition=bottom;labelBackgroundColor=#ffffff;imageAspect=0;aspect=fixed;image=https://cdn1.iconfinder.com/data/icons/Vista-Inspirate_1.0/128x128/apps/debian.png" parent="1" vertex="1">
          <mxGeometry x="584" y="414.5" width="20" height="20" as="geometry" />
        </mxCell>
        <mxCell id="Pmdtr9oIzFHYsxCgHXhq-10" style="edgeStyle=orthogonalEdgeStyle;rounded=0;orthogonalLoop=1;jettySize=auto;html=1;entryX=0.5;entryY=1;entryDx=0;entryDy=0;" edge="1" parent="1">
          <mxGeometry relative="1" as="geometry">
            <mxPoint x="584" y="324.9955555555554" as="sourcePoint" />
            <mxPoint x="285" y="280.19" as="targetPoint" />
          </mxGeometry>
        </mxCell>
        <mxCell id="F_XST8kIAoM1eg2vmdfE-70" value="" style="shape=image;html=1;verticalAlign=top;verticalLabelPosition=bottom;labelBackgroundColor=#ffffff;imageAspect=0;aspect=fixed;image=https://cdn1.iconfinder.com/data/icons/Vista-Inspirate_1.0/128x128/apps/debian.png" parent="1" vertex="1">
          <mxGeometry x="584" y="328.5" width="20" height="20" as="geometry" />
        </mxCell>
        <mxCell id="F_XST8kIAoM1eg2vmdfE-71" value="" style="shape=image;html=1;verticalAlign=top;verticalLabelPosition=bottom;labelBackgroundColor=#ffffff;imageAspect=0;aspect=fixed;image=https://cdn1.iconfinder.com/data/icons/Vista-Inspirate_1.0/128x128/apps/debian.png" parent="1" vertex="1">
          <mxGeometry x="584" y="242.5" width="20" height="20" as="geometry" />
        </mxCell>
        <mxCell id="Pmdtr9oIzFHYsxCgHXhq-1" value="Laptop" style="image;points=[];aspect=fixed;html=1;align=center;shadow=0;dashed=0;image=img/lib/allied_telesis/computer_and_terminals/Laptop.svg;" vertex="1" parent="1">
          <mxGeometry x="1250" y="618.5" width="42" height="42.599999999999994" as="geometry" />
        </mxCell>
        <mxCell id="Pmdtr9oIzFHYsxCgHXhq-2" value="Mobile" style="image;points=[];aspect=fixed;html=1;align=center;shadow=0;dashed=0;image=img/lib/allied_telesis/computer_and_terminals/Smartphone.svg;" vertex="1" parent="1">
          <mxGeometry x="1490" y="620.3" width="19.8" height="43.199999999999996" as="geometry" />
        </mxCell>
        <mxCell id="Pmdtr9oIzFHYsxCgHXhq-3" value="Tablet" style="image;points=[];aspect=fixed;html=1;align=center;shadow=0;dashed=0;image=img/lib/allied_telesis/computer_and_terminals/Tablet.svg;" vertex="1" parent="1">
          <mxGeometry x="1560" y="616.5" width="27" height="57" as="geometry" />
        </mxCell>
        <mxCell id="Pmdtr9oIzFHYsxCgHXhq-17" style="edgeStyle=orthogonalEdgeStyle;rounded=0;orthogonalLoop=1;jettySize=auto;html=1;entryX=1;entryY=0.5;entryDx=0;entryDy=0;endArrow=none;startFill=0;" edge="1" parent="1" source="Pmdtr9oIzFHYsxCgHXhq-4" target="Pmdtr9oIzFHYsxCgHXhq-8">
          <mxGeometry relative="1" as="geometry" />
        </mxCell>
        <mxCell id="Pmdtr9oIzFHYsxCgHXhq-18" style="edgeStyle=orthogonalEdgeStyle;rounded=0;orthogonalLoop=1;jettySize=auto;html=1;entryX=1;entryY=0.5;entryDx=0;entryDy=0;endArrow=none;startFill=0;" edge="1" parent="1" source="Pmdtr9oIzFHYsxCgHXhq-4" target="H-8ICV9-0rw6bkesGoe8-22">
          <mxGeometry relative="1" as="geometry" />
        </mxCell>
        <mxCell id="Pmdtr9oIzFHYsxCgHXhq-4" value="Proxmox&lt;div&gt;(hypervisor)&lt;/div&gt;" style="image;points=[];aspect=fixed;html=1;align=center;shadow=0;dashed=0;image=img/lib/allied_telesis/computer_and_terminals/Server_Desktop.svg;" vertex="1" parent="1">
          <mxGeometry x="807.4" y="453" width="42.599999999999994" height="54" as="geometry" />
        </mxCell>
        <mxCell id="Pmdtr9oIzFHYsxCgHXhq-11" style="edgeStyle=orthogonalEdgeStyle;rounded=0;orthogonalLoop=1;jettySize=auto;html=1;entryX=1;entryY=0.451;entryDx=0;entryDy=0;entryPerimeter=0;endArrow=none;startFill=0;" edge="1" parent="1" source="UK7bh5dRqCB79iwSgrZ0-9" target="UK7bh5dRqCB79iwSgrZ0-19">
          <mxGeometry relative="1" as="geometry" />
        </mxCell>
      </root>
    </mxGraphModel>
  </diagram>
</mxfile>
